<svg xmlns="http://www.w3.org/2000/svg" viewBox="0 0 356.17 254.96"><defs><style>.cls-1,.cls-2,.cls-3{fill:#9728ff;}.cls-1,.cls-2{stroke:#9728ff;stroke-linecap:round;stroke-linejoin:round;}.cls-1{stroke-width:3px;}.cls-2{stroke-width:2px;}.cls-4{fill:#fff;}</style></defs><g id="Layer_2" data-name="Layer 2"><g id="TEXTS"><line class="cls-1" x1="278.85" y1="204.73" x2="354.67" y2="204.73"/><line class="cls-1" x1="1.5" y1="204.73" x2="76.54" y2="204.73"/><line class="cls-2" x1="303.03" y1="211.76" x2="354.67" y2="211.76"/><line class="cls-2" x1="1.5" y1="211.76" x2="54.88" y2="211.76"/><path class="cls-3" d="M287.77,252.21a234.84,234.84,0,0,0-219.76,0q.75-7.77,2-15.6-6.91-3.9-14.19-7.42a260.93,260.93,0,0,1,244.14,0q-7.27,3.52-14.19,7.42Q287,244.44,287.77,252.21Z"/><path class="cls-3" d="M183.78,247.55h45"/><path class="cls-3" d="M183.67,248a54.2,54.2,0,0,0,8.74.29l8.75.06c5.87.06,11.74.15,17.62.2,3.33,0,6.66,0,10,0a1,1,0,0,0,0-2c-11.75,0-23.5.21-35.25.28-1.66,0-3.33,0-5,0a32.93,32.93,0,0,0-4.86.27.44.44,0,0,0,0,.84Z"/><polyline class="cls-3" points="217.18 243.07 235.58 247.55 217.18 252.04"/><path class="cls-3" d="M217.3,242.58,236,245.87a1.71,1.71,0,0,1,0,3.36l-18.69,3.29a.5.5,0,0,1-.58-.4.51.51,0,0,1,.34-.57l18.11-5.68v3.36l-18.11-5.67a.5.5,0,0,1-.32-.63A.5.5,0,0,1,217.3,242.58Z"/><path class="cls-3" d="M186.09,240.36a77.9,77.9,0,0,0,5.1,6.73"/><path class="cls-3" d="M185.53,240.68c.68,1.21,1.35,2.42,2.1,3.59s1.54,2.37,2.34,3.54a1.41,1.41,0,1,0,2.22-1.72,66,66,0,0,1-5.64-6.19c-.48-.59-1.37.16-1,.78Z"/><path class="cls-3" d="M190.71,240.36a77.75,77.75,0,0,0,5.09,6.73"/><path class="cls-3" d="M190.15,240.68c.67,1.21,1.35,2.42,2.1,3.59s1.54,2.37,2.33,3.54a1.41,1.41,0,1,0,2.22-1.72,68.87,68.87,0,0,1-5.64-6.19c-.47-.59-1.36.16-1,.78Z"/><path class="cls-3" d="M195,240.36a80,80,0,0,0,5.1,6.73"/><path class="cls-3" d="M194.47,240.68c.68,1.21,1.35,2.42,2.11,3.59s1.53,2.37,2.33,3.54a1.41,1.41,0,1,0,2.22-1.72,67.41,67.41,0,0,1-5.64-6.19c-.47-.59-1.37.16-1,.78Z"/><path class="cls-3" d="M186.09,254.29a78,78,0,0,1,5.1-6.74"/><path class="cls-3" d="M186.55,254.75a66.12,66.12,0,0,1,5.64-6.2,1.41,1.41,0,1,0-2.22-1.71c-.8,1.17-1.57,2.35-2.34,3.54s-1.42,2.37-2.1,3.58a.65.65,0,0,0,1,.79Z"/><path class="cls-3" d="M190.71,254.29a77.87,77.87,0,0,1,5.09-6.74"/><path class="cls-3" d="M191.16,254.75a69,69,0,0,1,5.64-6.2,1.41,1.41,0,1,0-2.22-1.71c-.79,1.17-1.56,2.35-2.33,3.54s-1.43,2.37-2.1,3.58a.65.65,0,0,0,1,.79Z"/><path class="cls-3" d="M195,254.29a80.11,80.11,0,0,1,5.1-6.74"/><path class="cls-3" d="M195.49,254.75a67.53,67.53,0,0,1,5.64-6.2,1.41,1.41,0,1,0-2.22-1.71c-.8,1.17-1.57,2.35-2.33,3.54s-1.43,2.37-2.11,3.58a.65.65,0,0,0,1,.79Z"/><path class="cls-3" d="M172,247.55H127"/><path class="cls-3" d="M172.11,247.13a56.68,56.68,0,0,0-8.74-.29c-2.92,0-5.83,0-8.75-.06l-17.62-.2c-3.33,0-6.67,0-10,0a1,1,0,0,0,0,2c11.75,0,23.5-.21,35.24-.27,1.67,0,3.34,0,5,0a31.68,31.68,0,0,0,4.87-.27.44.44,0,0,0,0-.84Z"/><polyline class="cls-3" points="138.59 243.07 120.2 247.55 138.59 252.04"/><path class="cls-3" d="M138.71,243.56l-18.1,5.67v-3.36l18.1,5.68a.5.5,0,0,1-.23,1l-18.69-3.29a1.71,1.71,0,0,1,0-3.36l18.69-3.29a.5.5,0,0,1,.23,1Z"/><path class="cls-3" d="M169.69,240.36a80,80,0,0,1-5.1,6.73"/><path class="cls-3" d="M169.23,239.9a68.87,68.87,0,0,1-5.64,6.19,1.41,1.41,0,1,0,2.22,1.72c.8-1.17,1.57-2.36,2.33-3.54s1.43-2.38,2.11-3.59a.64.64,0,0,0-.17-.83.63.63,0,0,0-.85.05Z"/><path class="cls-3" d="M165.07,240.36a80,80,0,0,1-5.1,6.73"/><path class="cls-3" d="M164.61,239.9a67.41,67.41,0,0,1-5.64,6.19,1.41,1.41,0,1,0,2.22,1.72c.8-1.17,1.57-2.36,2.33-3.54s1.43-2.38,2.11-3.59a.65.65,0,0,0-1-.78Z"/><path class="cls-3" d="M160.75,240.36a80,80,0,0,1-5.1,6.73"/><path class="cls-3" d="M160.29,239.9a68.87,68.87,0,0,1-5.64,6.19,1.41,1.41,0,1,0,2.22,1.72c.79-1.17,1.56-2.36,2.33-3.54s1.43-2.38,2.11-3.59a.65.65,0,0,0-.17-.83.63.63,0,0,0-.85.05Z"/><path class="cls-3" d="M169.69,254.29a80.11,80.11,0,0,0-5.1-6.74"/><path class="cls-3" d="M170.25,254c-.68-1.21-1.36-2.41-2.11-3.58s-1.53-2.37-2.33-3.54a1.41,1.41,0,1,0-2.22,1.71,69,69,0,0,1,5.64,6.2c.47.59,1.37-.17,1-.79Z"/><path class="cls-3" d="M165.07,254.29a80.11,80.11,0,0,0-5.1-6.74"/><path class="cls-3" d="M165.63,254c-.68-1.21-1.35-2.41-2.11-3.58s-1.53-2.37-2.33-3.54a1.41,1.41,0,1,0-2.22,1.71,67.53,67.53,0,0,1,5.64,6.2c.47.59,1.37-.17,1-.79Z"/><path class="cls-3" d="M160.75,254.29a80.11,80.11,0,0,0-5.1-6.74"/><path class="cls-3" d="M161.31,254c-.68-1.21-1.36-2.41-2.11-3.58s-1.54-2.37-2.33-3.54a1.41,1.41,0,1,0-2.22,1.71,69,69,0,0,1,5.64,6.2c.47.59,1.36-.17,1-.79Z"/><path class="cls-3" d="M277,110.28a69.12,69.12,0,0,1-21.21,7s4.29,29.34-15,46.7a1.07,1.07,0,0,0,.71,1.88h15.28a1.08,1.08,0,0,0,1.07-.94,48,48,0,0,1,1-5.66c.1-.42,1.53-.47,1.65-.93.21-.79-.87-2-.6-2.92.59-2,1.34-4.13,2.3-6.49C266,140.28,279.93,115.84,277,110.28Z"/><path class="cls-3" d="M154.31,105.22s-5.28,16.41-7.19,22a47.16,47.16,0,0,1,13.2,19.41,86.53,86.53,0,0,1,4.25,19.27,1,1,0,0,0,1.52.69l8.2-5.72a1,1,0,0,0,.39-1l-1.85-7.94.75-.49a1.44,1.44,0,0,0,.41-2l-.07-.09a5.4,5.4,0,0,0-2.58-2l-.88-.33a95.26,95.26,0,0,1-9-22.57C157.8,110.66,155.68,106.83,154.31,105.22Z"/><path class="cls-3" d="M320.45,89.79c-16.5-10.34-16.4-17.28-17.22-24s-1.6-20.7-2.39-31.69S296.77,8.88,283.19,2C279.54-.09,274-.9,266.71,1.34l-5.42,1.82L238.22,6.47l-8-.56s-91-2-103.95-2-27.87,6.22-34.5,22.05C84.92,42.3,62.4,92.31,62.4,92.31s-10.33-2.15-16.3,12.82c0,0-10.49-9.42-21.85-3.17,0,0-2.36,6.64,5.14,10.69,0,0-.56,7.46,11.45,4.13a8.46,8.46,0,0,0,.39,7.59c2.23,3.95,4.37,4.06,4.41,8.3s-.8,12.43-1,14.89-5.64,9-5.53,13.06c.1,3.49,1,6.89,4,6.89H54.4c2.9,0,5.92-2.53,9.77-6.95s14.4-15.43,16.61-21.73,4-18.74,4-18.74,4.26,5,9.56,3.51S112.37,115,112.37,115s1,6.56,10.32,8.89l0-19.49a.84.84,0,0,1,.8-.85h0a.85.85,0,0,1,.9.74c.45,3.79,1,20.11,1,20.11l1.7,14.56-3.55,20.49-3.73,6.88a.82.82,0,0,0,.73,1.22h10.06a.81.81,0,0,0,.75-.48l3.26-7.16h.66A.76.76,0,0,0,136,159l-.61-6.79,2.2-13.84,5.26-10.73,13.72-38.5a.84.84,0,0,1,1-.53h0a.85.85,0,0,1,.62,1l-2.43,12.67c9,.53,17.5,7,36.67,9.16,21.89,2.45,40.37-6,40.37-6l6.08,3.14v6.17c0,2.68,4.38,3.15,4.38-.13s-.07-4.4-.07-4.4l1.77.66v4.21c0,2.3,3.87,2.51,3.87-.15,0-2.47.05-3.06.05-3.06s15.74,1.63,28.56-8.24c.33-.26-20.13-6.73-25.27-26.49a.79.79,0,0,1,.45-.92h0a.79.79,0,0,1,1,.46c5.08,14.11,16.59,21.31,26.83,24.64,0,0,18.09,27.89,16.47,50.7-.15,2.9-1.76,10.73-2.46,14a1.22,1.22,0,0,0,1.2,1.47h15.63a1.22,1.22,0,0,0,1.18-1.51l-2-7.84a.82.82,0,0,0,.73-.51c.2-.55-.63-2.33-.63-2.33l-1.33-2.57a119.71,119.71,0,0,1-1.43-43.35,3.29,3.29,0,0,0-.53-2.35c-3.16-4.54-15.2-26.11-13.48-88.94,0,0,2.95,7.11,4.07,24.56s.71,29.09,5.27,36.4,13.31,12.81,13.31,12.81a16.56,16.56,0,0,0,.64,12.38,11.45,11.45,0,0,1-.35,11.17.35.35,0,0,0,.52.47,12.59,12.59,0,0,0,4.48-6.92,18,18,0,0,1,1.94,12,.33.33,0,0,0,.62.2,28.85,28.85,0,0,0,2.42-12.27s1.46.77,2,4.08a.53.53,0,0,0,1,.07C331.32,108.58,333.25,97.81,320.45,89.79Zm-253.55,19-4.36,8.81-3.12,12.94-7.81,16.51a1.63,1.63,0,0,1-3.11-.75l.54-16-2.68-11a9.26,9.26,0,0,1,0-4.53l1.85-7.07a7,7,0,0,1,3.52-4.43l5.95-3.14a3.54,3.54,0,0,1,1.63-.4h2a3.48,3.48,0,0,1,2.7,1.28l2.29,2.77A4.64,4.64,0,0,1,66.9,108.83ZM153.82,46.9a10.62,10.62,0,0,0-4.27-6.51A92.9,92.9,0,0,0,136,32.74c-6.27-3-11.79,1.15-17.32-1.23-5-2.17-4.4-6.19-7.11-7.94a7,7,0,0,0-9.77,2.72c-1.42,3.11-3,3.53-4.18,3s-1.28-2.5-.58-4c3.39-7.66,11.18-18.51,31.6-17.75s27.18.89,27.18.89a11.75,11.75,0,0,0,2.12,8c2.74,3.45,3.06,7.92.13,12.7s-1.41,8.43,1,11.56a9.65,9.65,0,0,1,2,4.52c.23,1.58-.69,3.61-2.21,4S154.62,49.64,153.82,46.9ZM229,102.74A97.55,97.55,0,0,1,202.4,108a69.05,69.05,0,0,1-25.34-3.74,14.19,14.19,0,0,1-2.92-1.15l0,0h0a9.14,9.14,0,0,1-1-.62c-1.67-1.22-2.63-3.14-4.27-4.36s-3.28-1.91-4.49-3.41c-2.49-3.1-1.53-7.11-1.49-10.75a14.53,14.53,0,0,0-1.24-5.72c-1.56-4-1.26-6.7-1.23-10.87,0-3.41-2.45-7.4-.51-10.61,1.08-1.78,2.87-2.43,4.53-.92,1.51,1.38,1.39,3.34,1.41,5.2,0,2.64,1.65,2,2.48.26.62-1.29.39-2.94,1-4.2A10.12,10.12,0,0,1,173,53a20.38,20.38,0,0,1,5.65-1.86,12.45,12.45,0,0,0,2.62-.89c.85-.43,1.6-1,2.44-1.46,1.58-.83,3.66-1,5,.34s.76,3.58-.53,4.83a13.54,13.54,0,0,1-4.4,2.31,7.37,7.37,0,0,0-3.64,3.24A14.3,14.3,0,0,0,178,65.31a7.06,7.06,0,0,0,2,5.14,44.88,44.88,0,0,1,3.75,4.83,27.07,27.07,0,0,1,2.74,5.81c.54,1.63.93,3.31,1.44,5a12,12,0,0,0,2.19,4.38,7.53,7.53,0,0,0,4.27,2.26c1.82.38,3.7.44,5.53.79a11,11,0,0,1,4.45,1.85.36.36,0,0,1,.35.11A7.63,7.63,0,0,0,209,97.38a7,7,0,0,0,2.29,0,11.61,11.61,0,0,0,2.6-1,14.31,14.31,0,0,1,9.48-.78c2.83.61,5.49,1.75,8.3,2.44S232.14,101.68,229,102.74Zm50.34-39.65c-3.62,4.76-9.93,6.88-14,5.81-6.39-1.66-8-7.75-4.73-11.62,4.34-5.17-2.42-11.68-7.08-7.72-6.22,5.28-19.6-.77-16.66-17.75s-12.51-15.95-16.73-15.95a3.07,3.07,0,1,1-.08-6.13c4.3-.05,6.72,0,6.72,0l10.09.76,23.87-3.57s13.66-5.24,18.38-2.68-.89,7.27-2.93,9.32-7.92,5.87-10.73,8.17,1,8.17,5,5.36,7,1.66,4.15,4.47-6.09,5.26-8.41,8.37c-2.57,3.44.76,8.33,5.79,6.63C278.61,44.32,286.85,53.26,279.38,63.09Z"/><path class="cls-4" d="M97.83,235a11,11,0,0,1-3.54,2.17c-4,1.64-8.11.61-10.13-3.82-1.94-4.22,0-8.58,4.75-10.53A9.39,9.39,0,0,1,92.8,222l.09,1.65a8.11,8.11,0,0,0-3.3.65c-3.59,1.46-5,4.56-3.46,8.12,1.48,3.32,4.43,4.55,7.93,3.12a8.72,8.72,0,0,0,2.83-1.79Z"/><path class="cls-4" d="M109.73,225.57a5.42,5.42,0,0,1-3.52,7.12,5.58,5.58,0,0,1-3.43-10.61A5.14,5.14,0,0,1,109.73,225.57Zm-8.48,3c.79,2.19,2.71,3.37,4.58,2.73s2.66-2.72,1.92-5c-.55-1.71-2.19-3.6-4.55-2.8S100.56,226.64,101.25,228.55Z"/><path class="cls-4" d="M113.35,219q1.49,2.38,2.94,4.8c.63,1,1.22,2,1.71,3l.07,0c0-1.11,0-2.31.07-3.51.11-1.91.24-3.83.39-5.74l1.7-.44q1.53,2.35,3,4.74C124,223,124.54,224,125,225h.07a28.52,28.52,0,0,1,0-3.57q.16-2.79.36-5.58l2-.46q-.66,5.61-1.15,11.21l-1.77.43c-1-1.52-1.91-3-2.89-4.53-.67-1.05-1.26-2-1.85-3.14h0a31.63,31.63,0,0,1-.11,3.68c-.15,1.78-.29,3.57-.41,5.36l-1.76.48q-3-4.66-6.25-9.28Z"/><path class="cls-4" d="M142.72,218.64c-.3,1.62-.58,3.24-.85,4.86l-2,.34q1.29-7.77,2.95-15.51c.84-.13,1.67-.25,2.51-.36q3.77,7,7.17,14.07l-2.09.25c-.73-1.48-1.46-3-2.21-4.43C146.36,218.1,144.54,218.35,142.72,218.64Zm4.86-2.21c-.69-1.35-1.4-2.69-2.11-4-.48-.91-.84-1.75-1.2-2.57h-.05c-.11.9-.24,1.83-.42,2.77-.31,1.5-.61,3-.9,4.48Q145.24,216.73,147.58,216.43Z"/><path class="cls-4" d="M165.29,218.08c.05,1.1.13,2.07.24,2.9l-1.76.1c-.07-.58-.14-1.16-.22-1.73h0a4.19,4.19,0,0,1-3.48,2.22c-1.71.13-3.84-.6-4.2-4.32-.19-2.07-.39-4.14-.58-6.21l2.07-.19.51,5.89c.17,2,.92,3.32,2.73,3.18a2.92,2.92,0,0,0,2.52-1.94,2.51,2.51,0,0,0,.12-1q-.19-3.25-.4-6.53l2.09-.12C165,212.91,165.15,215.5,165.29,218.08Z"/><path class="cls-4" d="M172.91,207c0,1,0,2,.05,3.07,1,0,2,0,3,0,0,.49,0,1,0,1.47l-3,0c0,1.92.07,3.84.1,5.75,0,1.32.42,2.07,1.53,2.05a4.36,4.36,0,0,0,1.16-.14c0,.49.06,1,.1,1.46a5.27,5.27,0,0,1-1.76.28,2.86,2.86,0,0,1-2.16-.78,3.88,3.88,0,0,1-.84-2.76l-.15-5.82-1.76.06c0-.5,0-1,0-1.48l1.77-.05-.06-2.56Z"/><path class="cls-4" d="M190.22,215.68a5.39,5.39,0,0,1-5.77,5.39,5.58,5.58,0,0,1,.58-11.14A5.12,5.12,0,0,1,190.22,215.68Zm-8.88-.25c-.05,2.33,1.3,4.12,3.25,4.19s3.41-1.59,3.54-4c.1-1.81-.74-4.15-3.2-4.25S181.37,213.4,181.34,215.43Z"/><path class="cls-4" d="M195.07,213.66c.09-1.1.14-2,.14-2.89l1.82.16-.06,1.72H197a3.91,3.91,0,0,1,3.76-1.6,3.34,3.34,0,0,1,3,2.49h.05a4.51,4.51,0,0,1,1.43-1.22,4.06,4.06,0,0,1,2.61-.41c1.51.21,3.61,1.46,3,5.12l-1,6.21L208,223l.87-6c.3-2-.32-3.36-2-3.59a2.62,2.62,0,0,0-2.65,1.44,3.06,3.06,0,0,0-.28.94c-.27,2.18-.53,4.36-.8,6.54l-1.93-.23.72-6.35c.19-1.68-.46-3-2-3.16a2.74,2.74,0,0,0-2.73,1.68,2.56,2.56,0,0,0-.25.93q-.28,3.2-.58,6.41l-1.93-.17Z"/><path class="cls-4" d="M221.05,225.25l.12-1.35-.07,0a4.16,4.16,0,0,1-3.6.9,3.12,3.12,0,0,1-2.77-3.62c.43-2.53,3.07-3.53,7.36-2.63l0-.22c.17-.86.24-2.47-2.06-2.92a5.74,5.74,0,0,0-3.07.23l-.24-1.34a7.31,7.31,0,0,1,3.89-.24c3.46.69,3.82,3.06,3.37,5.15l-.84,3.9a14.92,14.92,0,0,0-.36,2.53Zm.81-5.39c-2.17-.5-4.73-.6-5.1,1.44a1.76,1.76,0,0,0,1.52,2.18,2.77,2.77,0,0,0,3-1.23,1.93,1.93,0,0,0,.24-.58C221.62,221.06,221.74,220.46,221.86,219.86Z"/><path class="cls-4" d="M233.31,214l-.75,3,2.91.75c-.13.48-.26,1-.38,1.43l-2.89-.75L230.79,224c-.32,1.28-.13,2.1,1,2.38a4.83,4.83,0,0,0,1.16.17c-.09.47-.19,1-.28,1.43a5.22,5.22,0,0,1-1.79-.19,2.93,2.93,0,0,1-1.9-1.32,3.89,3.89,0,0,1-.09-2.88c.45-1.89.91-3.77,1.37-5.66l-1.73-.41c.11-.48.23-1,.34-1.44l1.74.42.6-2.49Z"/><path class="cls-4" d="M242.8,216.66a1.33,1.33,0,0,1-2.54-.74,1.24,1.24,0,0,1,1.62-.8A1.22,1.22,0,0,1,242.8,216.66Zm-6.05,12.46,2.94-10.25,2,.59-3,10.22Z"/><path class="cls-4" d="M255.18,229.51a5.42,5.42,0,0,1-7.17,3.43,5.26,5.26,0,0,1-3.36-6.9,5.32,5.32,0,0,1,7.19-3.57A5.16,5.16,0,0,1,255.18,229.51Zm-8.53-2.89c-.72,2.22.06,4.33,1.92,5s3.78-.5,4.61-2.76c.62-1.69.49-4.19-1.86-5S247.28,224.7,246.65,226.62Z"/><path class="cls-4" d="M260.49,229c.41-1,.72-1.87,1-2.72l1.74.71c-.18.56-.37,1.12-.55,1.68h0a4.28,4.28,0,0,1,4.33-.35c1.49.63,3.43,2.47,1.92,5.8-.88,1.94-1.75,3.87-2.62,5.81l-1.86-.83,2.48-5.63c.69-1.57.64-3.16-1.2-4a2.93,2.93,0,0,0-3.37.74,2.57,2.57,0,0,0-.47.78c-.81,2-1.63,4-2.44,5.93l-1.87-.76C258.56,233.85,259.52,231.45,260.49,229Z"/></g></g></svg>